<svg width="1920" height="1080" viewBox="0 0 1920 1080" fill="none" xmlns="http://www.w3.org/2000/svg">
<path d="M-512 134.5C-242.833 213.167 172.8 421.3 434 457C812.5 507.5 754 286.5 1046 220C1338 153.5 1602.5 352.5 1867.5 457C2081.5 542 2271 498.5 2444.5 357.5" stroke="#0B3954" stroke-opacity="0.3" stroke-width="200"/>
<path d="M-512 408C-242.833 486.667 172.8 694.8 434 730.5C812.5 781 754 559.5 1046 493.5C1338 427 1602.5 626 1867.5 730.5C2081.5 815.5 2271 772 2444.5 631" stroke="#0B3954" stroke-opacity="0.5" stroke-width="200"/>
<path d="M-512 681C-242.833 760.167 172.8 968.3 434 1004C812.5 1054.5 754 833.5 1046 767C1338 700.5 1602.5 900 1867.5 1004C2081.5 1089 2271 1045.5 2444.5 904.5" stroke="#0B3954" stroke-opacity="0.7" stroke-width="200"/>
</svg>
